<svg data-v-423bf9ae="" xmlns="http://www.w3.org/2000/svg" viewBox="0 0 326.25001064368666 60" class="font"><!----><!----><!----><g data-v-423bf9ae="" id="04f8cea0-6d32-4380-bfdc-cb660e7ebf27" fill="black" transform="matrix(5.952380997433594,0,0,5.952380997433594,-0.8333361467356895,-19.642857246117792)"><path d="M6.59 6.54L6.59 9.81Q6.59 11.28 6.04 11.97Q5.49 12.66 4.20 12.66L4.20 12.66L2.51 12.66L2.51 3.82L4.26 3.82Q6.59 3.82 6.59 6.54L6.59 6.54ZM0.14 3.84L1.29 3.82L1.29 12.64L0.14 12.64L0.14 13.17L4.55 13.17Q6.19 13.17 7.04 12.31Q7.90 11.45 7.90 9.81L7.90 9.81L7.90 6.59Q7.90 5.87 7.68 5.26Q7.46 4.65 7.06 4.21Q6.65 3.78 6.06 3.54Q5.47 3.30 4.72 3.30L4.72 3.30L0.14 3.30L0.14 3.84ZM13.01 10.23L13.01 12.15Q12.77 12.38 12.34 12.53Q11.91 12.68 11.20 12.68L11.20 12.68Q10.71 12.68 10.56 12.47Q10.40 12.26 10.40 11.79L10.40 11.79L10.40 11.28Q10.40 10.74 10.67 10.50Q10.93 10.26 11.65 10.25L11.65 10.25L13.01 10.23ZM13.02 12.82L13.02 12.82Q13.06 12.98 13.22 13.12Q13.37 13.26 13.64 13.26L13.64 13.26Q14.08 13.26 14.46 13.15Q14.83 13.05 15.12 12.88L15.12 12.88L15.05 12.42Q14.92 12.49 14.69 12.60Q14.45 12.71 14.27 12.71L14.27 12.71Q14.13 12.71 14.09 12.59Q14.06 12.47 14.06 12.19L14.06 12.19L14.06 8.39Q14.06 7.67 13.58 7.32Q13.10 6.97 12.22 6.97L12.22 6.97L11.27 6.97Q10.47 6.97 10.06 7.29Q9.65 7.60 9.65 8.19L9.65 8.19L9.65 8.64Q9.74 8.99 10.18 9.02L10.18 9.02Q10.56 9.02 10.71 8.72L10.71 8.72Q10.71 8.47 10.60 8.33Q10.49 8.19 10.47 8.04L10.47 8.04Q10.47 7.74 10.72 7.61Q10.98 7.48 11.41 7.48L11.41 7.48L12.11 7.48Q12.56 7.48 12.78 7.61Q13.01 7.74 13.01 8.18L13.01 8.18L13.01 9.77L11.52 9.79Q10.43 9.80 9.87 10.15Q9.31 10.50 9.31 11.17L9.31 11.17L9.31 12.04Q9.31 12.63 9.63 12.94Q9.94 13.26 10.61 13.26L10.61 13.26Q11.24 13.26 11.87 13.17Q12.49 13.09 13.02 12.82ZM17.42 12.14L17.42 12.14L17.42 7.63L18.84 7.63L18.84 7.13L17.42 7.13L17.42 5.08L16.87 5.08Q16.80 5.84 16.57 6.35Q16.34 6.86 15.83 7.13L15.83 7.13L15.36 7.13L15.36 7.63L16.37 7.63L16.37 12.15Q16.37 13.26 17.68 13.26L17.68 13.26Q18.27 13.26 18.54 13.09Q18.82 12.92 18.96 12.73L18.96 12.73L18.96 12.43L18.86 12.31Q18.83 12.43 18.60 12.59Q18.37 12.75 18.05 12.75L18.05 12.75Q17.70 12.75 17.56 12.62Q17.42 12.49 17.42 12.14ZM23.84 10.23L23.84 12.15Q23.60 12.38 23.18 12.53Q22.75 12.68 22.04 12.68L22.04 12.68Q21.55 12.68 21.39 12.47Q21.24 12.26 21.24 11.79L21.24 11.79L21.24 11.28Q21.24 10.74 21.50 10.50Q21.77 10.26 22.48 10.25L22.48 10.25L23.84 10.23ZM23.86 12.82L23.86 12.82Q23.90 12.98 24.05 13.12Q24.21 13.26 24.47 13.26L24.47 13.26Q24.92 13.26 25.29 13.15Q25.66 13.05 25.96 12.88L25.96 12.88L25.89 12.42Q25.76 12.49 25.52 12.60Q25.28 12.71 25.10 12.71L25.10 12.71Q24.96 12.71 24.93 12.59Q24.89 12.47 24.89 12.19L24.89 12.19L24.89 8.39Q24.89 7.67 24.42 7.32Q23.94 6.97 23.06 6.97L23.06 6.97L22.11 6.97Q21.31 6.97 20.89 7.29Q20.48 7.60 20.48 8.19L20.48 8.19L20.48 8.64Q20.58 8.99 21.01 9.02L21.01 9.02Q21.39 9.02 21.55 8.72L21.55 8.72Q21.55 8.47 21.43 8.33Q21.32 8.19 21.31 8.04L21.31 8.04Q21.31 7.74 21.56 7.61Q21.81 7.48 22.25 7.48L22.25 7.48L22.95 7.48Q23.39 7.48 23.62 7.61Q23.84 7.74 23.84 8.18L23.84 8.18L23.84 9.77L22.36 9.79Q21.27 9.80 20.71 10.15Q20.15 10.50 20.15 11.17L20.15 11.17L20.15 12.04Q20.15 12.63 20.46 12.94Q20.78 13.26 21.45 13.26L21.45 13.26Q22.08 13.26 22.70 13.17Q23.32 13.09 23.86 12.82ZM34.24 4.17L34.24 11.09Q33.67 10.08 33.11 9.11Q32.55 8.15 31.96 7.20Q31.37 6.24 30.81 5.28Q30.25 4.31 29.68 3.30L29.68 3.30L27.16 3.30L27.16 3.84L28.32 3.82L28.32 12.26Q28.32 12.64 28.01 12.64L28.01 12.64L27.16 12.64L27.16 13.17L30.11 13.17L30.11 12.64L29.20 12.64Q29.01 12.64 28.94 12.55Q28.87 12.46 28.87 12.26L28.87 12.26L28.87 4.42L34.08 13.06L34.20 13.22L34.79 13.22L34.79 4.17Q34.79 3.84 35.07 3.84L35.07 3.84L35.95 3.84L35.95 3.30L33.03 3.30L33.03 3.84L33.95 3.84Q34.24 3.84 34.24 4.17L34.24 4.17ZM41.36 11.07L41.36 11.07L41.36 9.16Q41.36 8.15 40.82 7.56Q40.28 6.97 39.31 6.97L39.31 6.97L38.05 6.97Q37.13 6.97 36.57 7.56Q36.02 8.15 36.02 9.16L36.02 9.16L36.02 11.07Q36.02 12.08 36.57 12.67Q37.11 13.26 38.05 13.26L38.05 13.26L39.31 13.26Q40.25 13.26 40.80 12.67Q41.36 12.08 41.36 11.07ZM40.22 8.79L40.22 11.44Q40.22 12.15 39.98 12.45Q39.73 12.75 39.06 12.75L39.06 12.75L38.30 12.75Q37.66 12.75 37.41 12.45Q37.16 12.15 37.16 11.44L37.16 11.44L37.16 8.79Q37.16 8.08 37.41 7.78Q37.66 7.48 38.30 7.48L38.30 7.48L39.06 7.48Q39.73 7.48 39.98 7.78Q40.22 8.08 40.22 8.79L40.22 8.79ZM45.46 13.38L47.56 7.95Q47.75 7.73 47.95 7.69Q48.15 7.64 48.48 7.64L48.48 7.64L48.48 7.13L45.99 7.13L45.99 7.64Q46.48 7.64 46.68 7.70Q46.89 7.76 46.94 8.05L46.94 8.05L45.51 11.96L43.95 7.64L44.87 7.64L44.87 7.13L42 7.13L42 7.64L42.80 7.64L45.02 13.38L45.46 13.38ZM52.84 10.23L52.84 12.15Q52.60 12.38 52.17 12.53Q51.74 12.68 51.03 12.68L51.03 12.68Q50.54 12.68 50.39 12.47Q50.23 12.26 50.23 11.79L50.23 11.79L50.23 11.28Q50.23 10.74 50.50 10.50Q50.76 10.26 51.48 10.25L51.48 10.25L52.84 10.23ZM52.85 12.82L52.85 12.82Q52.89 12.98 53.05 13.12Q53.20 13.26 53.47 13.26L53.47 13.26Q53.91 13.26 54.29 13.15Q54.66 13.05 54.95 12.88L54.95 12.88L54.88 12.42Q54.75 12.49 54.52 12.60Q54.28 12.71 54.10 12.71L54.10 12.71Q53.96 12.71 53.92 12.59Q53.89 12.47 53.89 12.19L53.89 12.19L53.89 8.39Q53.89 7.67 53.41 7.32Q52.93 6.97 52.05 6.97L52.05 6.97L51.10 6.97Q50.30 6.97 49.89 7.29Q49.48 7.60 49.48 8.19L49.48 8.19L49.48 8.64Q49.57 8.99 50.01 9.02L50.01 9.02Q50.39 9.02 50.54 8.72L50.54 8.72Q50.54 8.47 50.43 8.33Q50.32 8.19 50.30 8.04L50.30 8.04Q50.30 7.74 50.55 7.61Q50.81 7.48 51.24 7.48L51.24 7.48L51.94 7.48Q52.39 7.48 52.61 7.61Q52.84 7.74 52.84 8.18L52.84 8.18L52.84 9.77L51.35 9.79Q50.26 9.80 49.70 10.15Q49.14 10.50 49.14 11.17L49.14 11.17L49.14 12.04Q49.14 12.63 49.46 12.94Q49.77 13.26 50.44 13.26L50.44 13.26Q51.07 13.26 51.70 13.17Q52.32 13.09 52.85 12.82Z"></path></g><!----><!----></svg>